<mxfile host="app.diagrams.net" agent="Mozilla/5.0 (Windows NT 10.0; Win64; x64) AppleWebKit/537.36 (KHTML, like Gecko) Chrome/137.0.0.0 Safari/537.36" version="27.1.3">
  <diagram name="general usecase" id="aDTzzYrfLZ54K7JPPD7p">
    <mxGraphModel dx="1895" dy="1020" grid="0" gridSize="10" guides="1" tooltips="1" connect="1" arrows="1" fold="1" page="0" pageScale="1" pageWidth="827" pageHeight="1169" math="0" shadow="0">
      <root>
        <mxCell id="0" />
        <mxCell id="1" parent="0" />
        <mxCell id="hZQi2PmT2Btf4Aik4cLr-1" value="" style="rounded=0;whiteSpace=wrap;html=1;fillColor=none;" parent="1" vertex="1">
          <mxGeometry x="340" y="390" width="677" height="920" as="geometry" />
        </mxCell>
        <mxCell id="hZQi2PmT2Btf4Aik4cLr-2" style="rounded=0;orthogonalLoop=1;jettySize=auto;html=1;endArrow=none;startFill=0;" parent="1" source="hZQi2PmT2Btf4Aik4cLr-3" target="hZQi2PmT2Btf4Aik4cLr-8" edge="1">
          <mxGeometry relative="1" as="geometry" />
        </mxCell>
        <mxCell id="sn55oYvLA29WpIQ0QGo2-2" style="rounded=0;orthogonalLoop=1;jettySize=auto;html=1;entryX=1;entryY=0.5;entryDx=0;entryDy=0;endArrow=none;startFill=0;" parent="1" source="hZQi2PmT2Btf4Aik4cLr-3" target="sn55oYvLA29WpIQ0QGo2-1" edge="1">
          <mxGeometry relative="1" as="geometry" />
        </mxCell>
        <mxCell id="hZQi2PmT2Btf4Aik4cLr-3" value="&lt;font style=&quot;font-size: 20px;&quot;&gt;Admin&lt;/font&gt;" style="shape=umlActor;verticalLabelPosition=bottom;verticalAlign=top;html=1;outlineConnect=0;" parent="1" vertex="1">
          <mxGeometry x="1230" y="1155" width="60" height="130" as="geometry" />
        </mxCell>
        <mxCell id="hZQi2PmT2Btf4Aik4cLr-5" value="&lt;font style=&quot;font-size: 36px;&quot;&gt;Usecase tổng quan&lt;/font&gt;" style="text;html=1;align=center;verticalAlign=middle;whiteSpace=wrap;rounded=0;" parent="1" vertex="1">
          <mxGeometry x="337" y="320" width="680" height="30" as="geometry" />
        </mxCell>
        <mxCell id="hZQi2PmT2Btf4Aik4cLr-6" style="edgeStyle=orthogonalEdgeStyle;rounded=0;orthogonalLoop=1;jettySize=auto;html=1;exitX=0.5;exitY=1;exitDx=0;exitDy=0;" parent="1" edge="1">
          <mxGeometry relative="1" as="geometry">
            <mxPoint x="460" y="1240" as="sourcePoint" />
            <mxPoint x="460" y="1240" as="targetPoint" />
          </mxGeometry>
        </mxCell>
        <mxCell id="hZQi2PmT2Btf4Aik4cLr-7" value="&lt;font style=&quot;font-size: 16px;&quot;&gt;Quản lý cấu hình thiết bị&lt;/font&gt;" style="ellipse;whiteSpace=wrap;html=1;" parent="1" vertex="1">
          <mxGeometry x="580" y="400" width="120" height="80" as="geometry" />
        </mxCell>
        <mxCell id="hZQi2PmT2Btf4Aik4cLr-8" value="&lt;font style=&quot;font-size: 16px;&quot;&gt;Quản lý người dùng&lt;/font&gt;" style="ellipse;whiteSpace=wrap;html=1;" parent="1" vertex="1">
          <mxGeometry x="770" y="1075" width="120" height="80" as="geometry" />
        </mxCell>
        <mxCell id="hZQi2PmT2Btf4Aik4cLr-9" value="&lt;font style=&quot;font-size: 16px;&quot;&gt;Điều khiển thiết bị&lt;/font&gt;" style="ellipse;whiteSpace=wrap;html=1;" parent="1" vertex="1">
          <mxGeometry x="580" y="790" width="120" height="80" as="geometry" />
        </mxCell>
        <mxCell id="hZQi2PmT2Btf4Aik4cLr-11" value="&lt;font style=&quot;font-size: 16px;&quot;&gt;Tìm kiếm thiết bị&lt;/font&gt;" style="ellipse;whiteSpace=wrap;html=1;" parent="1" vertex="1">
          <mxGeometry x="580" y="500" width="120" height="80" as="geometry" />
        </mxCell>
        <mxCell id="hZQi2PmT2Btf4Aik4cLr-12" style="rounded=0;orthogonalLoop=1;jettySize=auto;html=1;endArrow=none;startFill=0;" parent="1" source="hZQi2PmT2Btf4Aik4cLr-13" target="hZQi2PmT2Btf4Aik4cLr-20" edge="1">
          <mxGeometry relative="1" as="geometry" />
        </mxCell>
        <mxCell id="hZQi2PmT2Btf4Aik4cLr-13" value="&lt;font style=&quot;font-size: 16px;&quot;&gt;Chăm sóc khách hàng&lt;/font&gt;" style="ellipse;whiteSpace=wrap;html=1;" parent="1" vertex="1">
          <mxGeometry x="580" y="880" width="120" height="80" as="geometry" />
        </mxCell>
        <mxCell id="hZQi2PmT2Btf4Aik4cLr-15" style="rounded=0;orthogonalLoop=1;jettySize=auto;html=1;entryX=0;entryY=0.5;entryDx=0;entryDy=0;endArrow=none;startFill=0;" parent="1" source="hZQi2PmT2Btf4Aik4cLr-18" target="hZQi2PmT2Btf4Aik4cLr-13" edge="1">
          <mxGeometry relative="1" as="geometry" />
        </mxCell>
        <mxCell id="hZQi2PmT2Btf4Aik4cLr-16" style="rounded=0;orthogonalLoop=1;jettySize=auto;html=1;entryX=0;entryY=0.5;entryDx=0;entryDy=0;" parent="1" source="hZQi2PmT2Btf4Aik4cLr-18" target="hZQi2PmT2Btf4Aik4cLr-22" edge="1">
          <mxGeometry relative="1" as="geometry" />
        </mxCell>
        <mxCell id="i0Zh-boLySZomZedeHQ8-6" style="rounded=0;orthogonalLoop=1;jettySize=auto;html=1;entryX=0;entryY=0.5;entryDx=0;entryDy=0;startArrow=none;startFill=0;endArrow=none;" edge="1" parent="1" target="i0Zh-boLySZomZedeHQ8-3">
          <mxGeometry relative="1" as="geometry">
            <mxPoint x="220" y="580" as="sourcePoint" />
          </mxGeometry>
        </mxCell>
        <mxCell id="i0Zh-boLySZomZedeHQ8-7" style="rounded=0;orthogonalLoop=1;jettySize=auto;html=1;entryX=0;entryY=0.5;entryDx=0;entryDy=0;endArrow=none;startFill=0;" edge="1" parent="1" source="hZQi2PmT2Btf4Aik4cLr-18" target="i0Zh-boLySZomZedeHQ8-1">
          <mxGeometry relative="1" as="geometry">
            <mxPoint x="320" y="590" as="targetPoint" />
          </mxGeometry>
        </mxCell>
        <mxCell id="hZQi2PmT2Btf4Aik4cLr-18" value="&lt;span style=&quot;font-size: 20px;&quot;&gt;Customer&lt;/span&gt;" style="shape=umlActor;verticalLabelPosition=bottom;verticalAlign=top;html=1;outlineConnect=0;" parent="1" vertex="1">
          <mxGeometry x="160" y="500" width="60" height="130" as="geometry" />
        </mxCell>
        <mxCell id="hZQi2PmT2Btf4Aik4cLr-19" style="rounded=0;orthogonalLoop=1;jettySize=auto;html=1;entryX=1;entryY=0.5;entryDx=0;entryDy=0;" parent="1" source="49lBkSTs0YkAO1xVRYRs-2" target="hZQi2PmT2Btf4Aik4cLr-23" edge="1">
          <mxGeometry relative="1" as="geometry" />
        </mxCell>
        <mxCell id="hZQi2PmT2Btf4Aik4cLr-20" value="&lt;font style=&quot;font-size: 20px;&quot;&gt;Engineer&lt;/font&gt;" style="shape=umlActor;verticalLabelPosition=bottom;verticalAlign=top;html=1;outlineConnect=0;" parent="1" vertex="1">
          <mxGeometry x="1211" y="780" width="60" height="130" as="geometry" />
        </mxCell>
        <mxCell id="hZQi2PmT2Btf4Aik4cLr-21" style="rounded=0;orthogonalLoop=1;jettySize=auto;html=1;entryX=0;entryY=0.5;entryDx=0;entryDy=0;endArrow=none;startFill=0;" parent="1" target="hZQi2PmT2Btf4Aik4cLr-9" edge="1">
          <mxGeometry relative="1" as="geometry">
            <mxPoint x="220" y="590" as="sourcePoint" />
          </mxGeometry>
        </mxCell>
        <mxCell id="hZQi2PmT2Btf4Aik4cLr-22" value="&lt;font style=&quot;font-size: 16px;&quot;&gt;Quản lý thông báo&lt;/font&gt;" style="ellipse;whiteSpace=wrap;html=1;" parent="1" vertex="1">
          <mxGeometry x="580" y="980" width="120" height="80" as="geometry" />
        </mxCell>
        <mxCell id="hZQi2PmT2Btf4Aik4cLr-23" value="&lt;font style=&quot;font-size: 16px;&quot;&gt;Quản lý loại thiết bị&lt;/font&gt;" style="ellipse;whiteSpace=wrap;html=1;" parent="1" vertex="1">
          <mxGeometry x="760" y="960" width="120" height="80" as="geometry" />
        </mxCell>
        <mxCell id="hZQi2PmT2Btf4Aik4cLr-24" value="" style="endArrow=none;html=1;rounded=0;entryX=0;entryY=0.5;entryDx=0;entryDy=0;" parent="1" target="hZQi2PmT2Btf4Aik4cLr-11" edge="1">
          <mxGeometry width="50" height="50" relative="1" as="geometry">
            <mxPoint x="220" y="580" as="sourcePoint" />
            <mxPoint x="560" y="700" as="targetPoint" />
          </mxGeometry>
        </mxCell>
        <mxCell id="hZQi2PmT2Btf4Aik4cLr-25" value="" style="endArrow=none;html=1;rounded=0;entryX=0;entryY=0.5;entryDx=0;entryDy=0;" parent="1" target="hZQi2PmT2Btf4Aik4cLr-7" edge="1">
          <mxGeometry width="50" height="50" relative="1" as="geometry">
            <mxPoint x="230" y="570" as="sourcePoint" />
            <mxPoint x="850" y="810" as="targetPoint" />
          </mxGeometry>
        </mxCell>
        <mxCell id="49lBkSTs0YkAO1xVRYRs-2" value="&lt;font style=&quot;font-size: 15px;&quot;&gt;&amp;nbsp;Device Type Manager&lt;/font&gt;" style="shape=umlActor;verticalLabelPosition=bottom;verticalAlign=top;html=1;outlineConnect=0;" parent="1" vertex="1">
          <mxGeometry x="1070" y="935" width="60" height="130" as="geometry" />
        </mxCell>
        <mxCell id="49lBkSTs0YkAO1xVRYRs-3" style="rounded=0;orthogonalLoop=1;jettySize=auto;html=1;entryX=1;entryY=0.3333333333333333;entryDx=0;entryDy=0;entryPerimeter=0;endArrow=block;endFill=0;" parent="1" source="hZQi2PmT2Btf4Aik4cLr-20" target="49lBkSTs0YkAO1xVRYRs-2" edge="1">
          <mxGeometry relative="1" as="geometry" />
        </mxCell>
        <mxCell id="49lBkSTs0YkAO1xVRYRs-4" style="rounded=0;orthogonalLoop=1;jettySize=auto;html=1;entryX=1;entryY=0.3333333333333333;entryDx=0;entryDy=0;entryPerimeter=0;endArrow=block;endFill=0;" parent="1" source="hZQi2PmT2Btf4Aik4cLr-3" target="49lBkSTs0YkAO1xVRYRs-2" edge="1">
          <mxGeometry relative="1" as="geometry" />
        </mxCell>
        <mxCell id="sn55oYvLA29WpIQ0QGo2-1" value="&lt;font style=&quot;font-size: 16px;&quot;&gt;Quản lý thiết bị&lt;/font&gt;" style="ellipse;whiteSpace=wrap;html=1;" parent="1" vertex="1">
          <mxGeometry x="770" y="1200" width="120" height="80" as="geometry" />
        </mxCell>
        <mxCell id="i0Zh-boLySZomZedeHQ8-1" value="&lt;font style=&quot;font-size: 16px;&quot;&gt;Xóa thiết bị&amp;nbsp;&lt;/font&gt;" style="ellipse;whiteSpace=wrap;html=1;" vertex="1" parent="1">
          <mxGeometry x="580" y="690" width="120" height="80" as="geometry" />
        </mxCell>
        <mxCell id="i0Zh-boLySZomZedeHQ8-3" value="&lt;font style=&quot;font-size: 16px;&quot;&gt;Thêm thiết bị&amp;nbsp;&lt;/font&gt;" style="ellipse;whiteSpace=wrap;html=1;" vertex="1" parent="1">
          <mxGeometry x="580" y="590" width="120" height="80" as="geometry" />
        </mxCell>
      </root>
    </mxGraphModel>
  </diagram>
</mxfile>
